<svg xmlns="http://www.w3.org/2000/svg" xmlns:xlink="http://www.w3.org/1999/xlink" version="1.1" x="0px" y="0px" viewBox="0 0 504 629.98875" style="enable-background:new 0 0 504 503.991;" xml:space="preserve"><g><path d="M303.472,238.022h37.434c2.209,0,4-1.791,4-4s-1.791-4-4-4h-37.434c-2.209,0-4,1.791-4,4S301.263,238.022,303.472,238.022z   "/><path d="M102.943,346.009c0,2.209,1.791,4,4,4s4-1.791,4-4v-51.993h103.623c2.209,0,4-1.791,4-4s-1.791-4-4-4H110.943v-19.997   h98.943c2.209,0,4-1.791,4-4v-23.997h24.075c2.209,0,4-1.791,4-4s-1.791-4-4-4h-24.075v-46.361l11.975,11.278   c0.772,0.728,1.758,1.088,2.741,1.088c1.064,0,2.126-0.422,2.913-1.258c1.515-1.608,1.438-4.14-0.17-5.654l-27.221-25.637   l36.332-28.984c1.728-1.378,2.011-3.895,0.633-5.622c-1.377-1.727-3.895-2.011-5.621-0.632l-37.226,29.697l-51.122-48.147   c-1.541-1.45-3.945-1.45-5.484,0l-84.226,79.324c-1.608,1.515-1.685,4.046-0.17,5.654c1.515,1.608,4.046,1.685,5.654,0.17   l21.333-20.092v87.171c0,2.209,1.791,4,4,4h14.717v19.997H55.472c-2.209,0-4,1.791-4,4s1.791,4,4,4h47.472V346.009z    M159.095,258.019H129.66v-47.993h29.435V258.019z M92.227,258.019v-90.705l52.15-49.115l61.51,57.929v53.895H191.17   c-2.209,0-4,1.791-4,4s1.791,4,4,4h14.717v19.997h-38.792v-51.993c0-2.209-1.791-4-4-4H125.66c-2.209,0-4,1.791-4,4v51.993H92.227z   "/><path d="M439.17,219.358c2.209,0,4-1.791,4-4s-1.791-4-4-4h-37.434c-2.209,0-4,1.791-4,4s1.791,4,4,4H439.17z"/><path d="M459.057,253.353h-77.208c-1.644,0-3.119,1.005-3.722,2.534L365.26,288.55c-0.485,1.232-0.33,2.624,0.415,3.717   c0.745,1.094,1.983,1.749,3.307,1.749h10.037v24.663h-33.434c-1.634,0-3.104,0.994-3.713,2.511l-18.717,46.661   c-0.494,1.232-0.345,2.63,0.399,3.73c0.744,1.1,1.985,1.759,3.313,1.759h14.717v42.661c0,2.209,1.791,4,4,4h112.302   c2.209,0,4-1.791,4-4V373.34h14.717c1.328,0,2.569-0.659,3.313-1.759c0.744-1.1,0.894-2.498,0.399-3.73l-18.43-45.945v-27.889   h10.038c1.323,0,2.562-0.655,3.307-1.749c0.745-1.094,0.9-2.486,0.415-3.717l-12.868-32.663   C462.176,254.358,460.7,253.353,459.057,253.353z M453.887,412.001H349.585V373.34h104.302V412.001z M470.689,365.34H332.782   l15.508-38.661h106.892L470.689,365.34z M387.019,318.679v-24.663h66.868v24.663H387.019z M374.856,286.016l9.716-24.663h71.761   l9.717,24.663H374.856z"/><path d="M420.453,191.361c26.289,0,46.113-9.744,46.113-22.665s-19.824-22.665-46.113-22.665s-46.113,9.744-46.113,22.665   S394.164,191.361,420.453,191.361z M420.453,154.032c21.813,0,38.113,7.742,38.113,14.665s-16.3,14.665-38.113,14.665   s-38.113-7.742-38.113-14.665S398.64,154.032,420.453,154.032z"/><path d="M501.968,95.223c-1.256-0.708-2.796-0.689-4.031,0.056c-40.509,24.389-81.534,36.756-121.937,36.756   c-10.115,0-19.857-0.751-29.618-2.269l54.257-95.971c2.979-5.27,3.725-11.383,2.099-17.212c-1.629-5.839-5.44-10.693-10.733-13.668   c-10.907-6.131-24.787-2.269-30.938,8.611l-14.122,24.979l-4.689-2.636c-8.651-4.863-19.661-1.8-24.541,6.831l-20.699,36.613   c-2.363,4.181-2.955,9.031-1.665,13.656c1.293,4.632,4.316,8.484,8.516,10.844l4.672,2.626l-7.267,12.855   c-16.466-6.435-32.172-14.398-47.38-22.136c-36.511-18.574-74.264-37.78-125.89-37.78c-41.878,0-84.292,12.752-126.063,37.902   C0.735,96.002,0,97.302,0,98.705v363.957c0,1.442,0.776,2.772,2.032,3.482c1.255,0.708,2.796,0.689,4.031-0.056   C46.571,441.7,87.597,429.333,128,429.333c49.708,0,84.95,17.929,122.262,36.91c36.479,18.558,74.201,37.748,125.738,37.748   c41.878,0,84.292-12.752,126.063-37.902c1.201-0.724,1.937-2.024,1.937-3.427V98.705C504,97.263,503.224,95.933,501.968,95.223z    M368.03,15.461c3.985-7.051,12.982-9.549,20.054-5.574c3.427,1.926,5.894,5.067,6.947,8.845c1.051,3.767,0.569,7.718-1.357,11.125   l-14.857,26.279c-6.271-0.561-11.221-2.665-14.389-4.446c-5.296-2.977-8.916-6.784-11.255-9.95L368.03,15.461z M348.939,49.23   c2.782,3.198,6.563,6.618,11.569,9.433c3.259,1.832,8.054,3.953,14.06,4.99l-7.24,12.806c-6.27-0.561-11.221-2.665-14.389-4.445   c-5.295-2.977-8.915-6.784-11.254-9.951L348.939,49.23z M307.785,94.837c-2.333-1.312-4.013-3.45-4.729-6.021   c-0.715-2.563-0.387-5.25,0.924-7.568l20.699-36.613c2.715-4.802,8.84-6.502,13.656-3.795l4.672,2.626l-30.532,54.006   L307.785,94.837z M337.449,69.553c2.783,3.198,6.563,6.619,11.569,9.434c3.26,1.832,8.055,3.953,14.059,4.989L298.39,198.399   c-6.271-0.561-11.222-2.665-14.39-4.446c-5.296-2.978-8.916-6.784-11.255-9.951L337.449,69.553z M290.897,205.226l-24.247,19.431   l4.121-30.757c2.477,2.45,5.544,4.911,9.308,7.027C282.727,202.416,286.395,204.092,290.897,205.226z M496,460.392   c-39.879,23.624-80.24,35.599-120,35.599c-49.62,0-84.831-17.913-122.11-36.878c-36.511-18.574-74.264-37.78-125.89-37.78   c-39.854,0-80.191,11.548-120,34.341V100.975c39.879-23.624,80.24-35.599,120-35.599c49.708,0,84.95,17.929,122.263,36.911   c15.059,7.661,30.6,15.543,47.03,22.04l-32.742,57.914c-0.264,0.429-0.415,0.914-0.482,1.438l-6.675,49.813   c-0.217,1.62,0.574,3.21,1.997,4.014c0.614,0.347,1.292,0.517,1.967,0.517c0.891,0,1.776-0.297,2.502-0.878l39.284-31.481   c0.396-0.318,0.729-0.697,0.981-1.153l38.062-67.326c11.166,1.908,22.258,2.85,33.813,2.85c39.853,0,80.19-11.548,120-34.341   V460.392z"/><path d="M247.32,379.338H78.868c-2.209,0-4,1.791-4,4s1.791,4,4,4H247.32c2.209,0,4-1.791,4-4S249.529,379.338,247.32,379.338z"/><path d="M135.019,342.009c-2.209,0-4,1.791-4,4s1.791,4,4,4h93.585c2.209,0,4-1.791,4-4s-1.791-4-4-4H135.019z"/><path d="M130.34,182.029h28.075c2.209,0,4-1.791,4-4V164.05c0-9.935-8.083-18.018-18.058-18.018   c-9.935,0-18.018,8.083-18.018,18.018v13.979C126.34,180.238,128.131,182.029,130.34,182.029z M134.34,164.05   c0-5.524,4.494-10.018,10.058-10.018c5.523,0,10.018,4.494,10.018,10.018v9.979H134.34V164.05z"/><path d="M349.585,290.016c0-2.209-1.791-4-4-4H242.642c-2.209,0-4,1.791-4,4s1.791,4,4,4h102.943   C347.794,294.016,349.585,292.225,349.585,290.016z"/></g><text x="0" y="518.991" fill="#000000" font-size="5px" font-weight="bold" font-family="'Helvetica Neue', Helvetica, Arial-Unicode, Arial, Sans-serif">Created by Amethyst Studio</text><text x="0" y="523.991" fill="#000000" font-size="5px" font-weight="bold" font-family="'Helvetica Neue', Helvetica, Arial-Unicode, Arial, Sans-serif">from the Noun Project</text></svg>