<svg xmlns="http://www.w3.org/2000/svg" data-name="Layer 1" viewBox="0 0 1000 1250" x="0px" y="0px"><title>657-Repair Services</title><path d="M393.2,513.08a15.92,15.92,0,0,1-11.31-4.69L254.73,381.23a16,16,0,0,1,22.62-22.62L404.51,485.77a16,16,0,0,1-11.31,27.31Z"/><path d="M630.29,750.17A15.92,15.92,0,0,1,619,745.48l-125.3-125.3a16,16,0,1,1,22.62-22.62l125.3,125.3a16,16,0,0,1-11.31,27.31Z"/><path d="M520.41,432.53a15.92,15.92,0,0,1-11.31-4.69L358.4,277.14A16,16,0,1,1,381,254.52l150.7,150.7a16,16,0,0,1-11.31,27.31Z"/><path d="M734,646.08a15.91,15.91,0,0,1-11.31-4.69L570.09,488.83a16,16,0,0,1,22.62-22.62L745.27,618.77A16,16,0,0,1,734,646.08Z"/><path d="M236.42,389.08A152.34,152.34,0,0,1,90.87,191.41a16,16,0,0,1,26.59-6.57l69.6,69.6,67.05-67.06-69.59-69.6a16,16,0,0,1,6.57-26.59A152.13,152.13,0,0,1,344.19,129h0c59.42,59.42,59.42,156.12,0,215.54A151.94,151.94,0,0,1,236.42,389.08ZM116.22,228.86A120.42,120.42,0,1,0,228.54,116.55l59.52,59.52a16,16,0,0,1,0,22.62l-89.69,89.69a16,16,0,0,1-22.63,0Z"/><path d="M763.47,915.73A152,152,0,0,1,655.81,871c-59.42-59.42-59.42-156.12,0-215.54s156.12-59.43,215.55,0a152.12,152.12,0,0,1,37.77,153.1,16,16,0,0,1-26.59,6.57l-69.6-69.6-67.05,67.06,69.59,69.6a16,16,0,0,1-6.57,26.59A153.1,153.1,0,0,1,763.47,915.73Zm.11-272.83a120.4,120.4,0,1,0,7.88,240.55l-59.52-59.52a16,16,0,0,1,0-22.62l89.69-89.69a16,16,0,0,1,22.63,0l59.52,59.52A120.4,120.4,0,0,0,763.58,642.9Z"/><path d="M495.89,579a16,16,0,0,1-11.31-27.31l250.09-250.1A16,16,0,0,1,747.55,297l18.34,1.81,111-150.73-27-27L699.11,232l1.81,18.34a16,16,0,0,1-4.61,12.88L446.21,513.35a16,16,0,0,1-22.63-22.62L668.33,246l-2-19.86a16,16,0,0,1,6.44-14.45L841.94,87.12a16,16,0,0,1,20.8,1.57l46.5,46.5a16,16,0,0,1,1.57,20.8L786.26,325.12a16,16,0,0,1-14.45,6.44l-19.86-2L507.2,574.35A16,16,0,0,1,495.89,579Z"/><path d="M202.54,916A116.53,116.53,0,0,1,86.13,795.71a117.72,117.72,0,0,1,39.72-84.32l276.3-243.52a16,16,0,0,1,21.89.69L533.51,578a16,16,0,0,1,.69,21.89L290.68,876.22a117.74,117.74,0,0,1-84.32,39.72C205.08,916,203.81,916,202.54,916ZM412,501.81,147,735.39A84.81,84.81,0,1,0,266.68,855.06L500.26,590Z"/><text x="0" y="1015" fill="#000000" font-size="5px" font-weight="bold" font-family="'Helvetica Neue', Helvetica, Arial-Unicode, Arial, Sans-serif">Created by IYIKON</text><text x="0" y="1020" fill="#000000" font-size="5px" font-weight="bold" font-family="'Helvetica Neue', Helvetica, Arial-Unicode, Arial, Sans-serif">from the Noun Project</text></svg>