<svg xmlns="http://www.w3.org/2000/svg" xmlns:xlink="http://www.w3.org/1999/xlink" version="1.1" x="0px" y="0px" viewBox="0 0 512 640" style="enable-background:new 0 0 512 512;" xml:space="preserve"><g><g><g><g><path d="M310.5,326h-109c-41.6,0-75.5-33.9-75.5-75.5V116c0-5.5,4.5-10,10-10h240c5.5,0,10,4.5,10,10v134.5      C386,292.1,352.1,326,310.5,326z M146,126v124.5c0,30.6,24.9,55.5,55.5,55.5h109c30.6,0,55.5-24.9,55.5-55.5V126H146z"/></g><g><path d="M296,386h-80c-5.5,0-10-4.5-10-10v-60c0-5.5,4.5-10,10-10h80c5.5,0,10,4.5,10,10v60C306,381.5,301.5,386,296,386z       M226,366h60v-40h-60V366z"/></g><g><path d="M196,126c-5.5,0-10-4.5-10-10V16c0-5.5,4.5-10,10-10s10,4.5,10,10v100C206,121.5,201.5,126,196,126z"/></g><g><path d="M316,126c-5.5,0-10-4.5-10-10V16c0-5.5,4.5-10,10-10s10,4.5,10,10v100C326,121.5,321.5,126,316,126z"/></g><g><path d="M256,506c-5.5,0-10-4.5-10-10V376c0-5.5,4.5-10,10-10s10,4.5,10,10v120C266,501.5,261.5,506,256,506z"/></g></g></g></g><text x="0" y="527" fill="#000000" font-size="5px" font-weight="bold" font-family="'Helvetica Neue', Helvetica, Arial-Unicode, Arial, Sans-serif">Created by ibrandify</text><text x="0" y="532" fill="#000000" font-size="5px" font-weight="bold" font-family="'Helvetica Neue', Helvetica, Arial-Unicode, Arial, Sans-serif">from the Noun Project</text></svg>