<svg xmlns="http://www.w3.org/2000/svg" data-name="Layer 2" viewBox="0 0 100 125" x="0px" y="0px"><rect x="25.34" y="27.8" width="2" height="56.49"/><rect x="4.18" y="55.04" width="56.49" height="2" transform="translate(-23.72 88.3) rotate(-89.83)"/><path d="M36.79,89.9h-14.42c-.34,0-.66-.17-.84-.46-.18-.29-.21-.65-.06-.96l2.13-4.6c.16-.35,.52-.58,.91-.58h9.81c.37,0,.71,.2,.88,.53l2.47,4.6c.17,.31,.16,.68-.02,.99-.18,.3-.51,.49-.86,.49Zm-12.86-2h11.18l-1.4-2.6h-8.58l-1.21,2.6Z"/><path d="M36.55,28.8h-14.42c-.3,0-.58-.13-.77-.36-.19-.23-.27-.53-.21-.83l1.79-9.24c.09-.47,.5-.81,.98-.81h10.83c.48,0,.89,.34,.98,.81l1.8,9.24c.06,.29-.02,.6-.21,.83-.19,.23-.47,.36-.77,.36Zm-13.21-2h11.99l-1.41-7.24h-9.18l-1.41,7.24Z"/><path d="M79.93,25.61H35.92c-.55,0-1-.45-1-1s.45-1,1-1h44c.55,0,1,.45,1,1s-.45,1-1,1Z"/><path d="M22.74,25.61H14.26c-.55,0-1-.45-1-1s.45-1,1-1h8.48c.55,0,1,.45,1,1s-.45,1-1,1Z"/><path d="M79.93,22.74H35.37c-.55,0-1-.45-1-1s.45-1,1-1h44.56c.55,0,1,.45,1,1s-.45,1-1,1Z"/><path d="M23.31,22.74H14.26c-.55,0-1-.45-1-1s.45-1,1-1h9.04c.55,0,1,.45,1,1s-.45,1-1,1Z"/><path d="M14.26,25.61c-.55,0-1-.45-1-1v-2.87c0-.55,.45-1,1-1s1,.45,1,1v2.87c0,.55-.45,1-1,1Z"/><rect x="15.59" y="24.61" width="2" height="9.73"/><path d="M22.06,38.51H11.12c-.55,0-1-.45-1-1v-2.44c0-.55,.45-1,1-1h10.94c.55,0,1,.45,1,1v2.44c0,.55-.45,1-1,1Zm-9.94-2h8.94v-.44H12.12v.44Z"/><path d="M22.06,40.97H11.12c-.55,0-1-.45-1-1v-2.44c0-.55,.45-1,1-1h10.94c.55,0,1,.45,1,1v2.44c0,.55-.45,1-1,1Zm-9.94-2h8.94v-.44H12.12v.44Z"/><path d="M22.06,43.44H11.12c-.55,0-1-.45-1-1v-2.44c0-.55,.45-1,1-1h10.94c.55,0,1,.45,1,1v2.44c0,.55-.45,1-1,1Zm-9.94-2h8.94v-.44H12.12v.44Z"/><path d="M30.2,84.97l-4.59-4.94c-.19-.2-.28-.47-.27-.75,.02-.27,.15-.53,.36-.71l5.24-4.33-5.36-6.14c-.35-.4-.33-1,.05-1.37l5.35-5.24-5.36-5.39c-.19-.19-.3-.45-.29-.72,0-.27,.12-.53,.32-.71l5.05-4.71-5.09-5.28c-.19-.2-.29-.47-.28-.74s.14-.53,.35-.71l5.23-4.5-5.25-4.74c-.21-.19-.33-.46-.33-.75s.12-.56,.34-.74l6.17-5.46,1.32,1.5-5.33,4.72,5.26,4.75c.21,.19,.33,.47,.33,.75,0,.29-.13,.56-.35,.75l-5.29,4.55,5.06,5.25c.19,.19,.29,.45,.28,.72,0,.27-.12,.52-.32,.71l-5.04,4.7,5.34,5.38c.19,.19,.29,.45,.29,.71,0,.27-.11,.52-.3,.71l-5.4,5.29,5.41,6.2c.18,.2,.27,.47,.24,.74-.02,.27-.15,.52-.36,.69l-5.21,4.31,3.87,4.17-1.46,1.36Z"/><path d="M33.03,25.61h-7.39c-.55,0-1-.45-1-1v-2.09c0-.55,.45-1,1-1h7.39c.55,0,1,.45,1,1v2.09c0,.55-.45,1-1,1Zm-6.39-2h5.39v-.09h-5.39v.09Z"/><rect x="27.69" y="10.04" width="3.29" height="8.69" rx="1" ry="1"/><path d="M79.93,25.61c-.55,0-1-.45-1-1v-2.06L29.68,12.12l-12.99,10.4c-.43,.35-1.06,.27-1.41-.16-.34-.43-.27-1.06,.16-1.41l13.36-10.69c.23-.19,.54-.26,.83-.2l50.51,10.69c.46,.1,.79,.51,.79,.98v2.87c0,.55-.45,1-1,1Z"/><path d="M78,37.29c-.55,0-1-.45-1-1v-11.68c0-.55,.45-1,1-1s1,.45,1,1v11.68c0,.55-.45,1-1,1Z"/><path d="M77.99,44.67c-.25,0-.5-.02-.75-.06-1.82-.28-3.29-1.53-3.82-3.26-.16-.53,.13-1.09,.66-1.25,.53-.16,1.09,.14,1.25,.66,.36,1.18,1.38,1.74,2.21,1.87,1.05,.16,2.03-.24,2.61-1.09,.57-.82,.62-1.86,.15-2.77-.48-.92-1.37-1.48-2.38-1.49-.55,0-1-.45-.99-1.01,0-.55,.45-.99,1-.99h0c1.74,.01,3.32,.99,4.14,2.56,.81,1.56,.7,3.41-.28,4.83-.87,1.26-2.29,1.98-3.81,1.98Z"/><path d="M89.07,90.04H49c-.55,0-1-.45-1-1v-3.43c0-.55,.45-1,1-1h40.07c.55,0,1,.45,1,1v3.43c0,.55-.45,1-1,1Zm-39.07-2h38.07v-1.43H50v1.43Z"/><path d="M86.32,86.62h-23.89c-.55,0-1-.45-1-1V52.96c0-.55,.45-1,1-1h23.89c.55,0,1,.45,1,1v32.65c0,.55-.45,1-1,1Zm-22.89-2h21.89v-30.65h-21.89v30.65Z"/><path d="M62.43,85.36h-7.71c-.55,0-1-.45-1-1v-14.14c0-.55,.45-1,1-1h7.71c.55,0,1,.45,1,1v14.14c0,.55-.45,1-1,1Zm-6.71-2h5.71v-12.14h-5.71v12.14Z"/><path d="M75.61,86.62h-3.54c-.55,0-1-.45-1-1v-8.33c0-.55,.45-1,1-1h3.54c.55,0,1,.45,1,1v8.33c0,.55-.45,1-1,1Zm-2.54-2h1.54v-6.33h-1.54v6.33Z"/><path d="M71.32,71h-3.86c-.55,0-1-.45-1-1v-3.86c0-.55,.45-1,1-1h3.86c.55,0,1,.45,1,1v3.86c0,.55-.45,1-1,1Zm-2.86-2h1.86v-1.86h-1.86v1.86Z"/><path d="M80.75,71h-3.86c-.55,0-1-.45-1-1v-3.86c0-.55,.45-1,1-1h3.86c.55,0,1,.45,1,1v3.86c0,.55-.45,1-1,1Zm-2.86-2h1.86v-1.86h-1.86v1.86Z"/><path d="M71.93,61.87h-3.86c-.55,0-1-.45-1-1v-3.86c0-.55,.45-1,1-1h3.86c.55,0,1,.45,1,1v3.86c0,.55-.45,1-1,1Zm-2.86-2h1.86v-1.86h-1.86v1.86Z"/><path d="M80.75,61.64h-3.86c-.55,0-1-.45-1-1v-3.86c0-.55,.45-1,1-1h3.86c.55,0,1,.45,1,1v3.86c0,.55-.45,1-1,1Zm-2.86-2h1.86v-1.86h-1.86v1.86Z"/><text x="0" y="115" fill="#000000" font-size="5px" font-weight="bold" font-family="'Helvetica Neue', Helvetica, Arial-Unicode, Arial, Sans-serif">Created by ilham firmansyah</text><text x="0" y="120" fill="#000000" font-size="5px" font-weight="bold" font-family="'Helvetica Neue', Helvetica, Arial-Unicode, Arial, Sans-serif">from the Noun Project</text></svg>