<svg xmlns="http://www.w3.org/2000/svg" xmlns:xlink="http://www.w3.org/1999/xlink" xml:space="preserve" version="1.1" style="shape-rendering:geometricPrecision;text-rendering:geometricPrecision;image-rendering:optimizeQuality;" viewBox="0 0 846.66 1058.325" x="0px" y="0px" fill-rule="evenodd" clip-rule="evenodd"><defs><style type="text/css">
   
    .fil0 {fill:black;fill-rule:nonzero}
   
  </style></defs><g><path class="fil0" d="M41.33 236.11l42.04 -53.1c7.28,-9.2 16.17,-16.11 26.14,-20.49 10.02,-4.41 21.12,-6.3 32.72,-5.46 11.5,0.83 23.48,4.5 33,11.1 8.75,5.79 16.06,13.58 21.56,23.08l35.18 61.01c7.19,12.37 10.24,26.02 9.28,39.36 -0.98,13.36 -5.98,26.42 -14.87,37.66l-18.75 23.68c-2.72,3.44 -4.09,6.31 -5.75,10.27 -0.94,2.79 -1.52,5.85 -1.72,9.21 -2.17,34.75 6.2,68.53 22.87,97.44 16.74,28.92 41.77,53.06 72.87,68.51 3.54,1.72 6.83,2.84 10.03,3.34 3.32,0.51 6.86,0.48 10.67,-0.07l29.87 -4.39c14.11,-2.07 27.91,0.13 39.99,5.98 12.05,5.84 22.34,15.28 29.5,27.69l35.25 60.96c5.81,10.07 8.95,20.89 9.33,31.9 0.4,10.97 -1.92,21.97 -6.98,32.42 -5.08,10.49 -12.27,19.17 -21.11,25.66 -8.86,6.51 -19.28,10.78 -30.78,12.46l-67.02 9.85c-7.45,1.1 -14.62,1.06 -21.64,-0.15 -7,-1.2 -13.78,-3.56 -20.46,-7.09 -84.86,-44.86 -153.17,-112.11 -199.33,-192.06 -46.17,-79.96 -70.25,-172.73 -66.69,-268.65 0.29,-7.62 1.63,-14.68 4.06,-21.28 2.45,-6.64 6.03,-12.87 10.74,-18.84zm310.39 -40.61l0 -43.03c0,-13.98 5.72,-26.69 14.91,-35.88 9.19,-9.19 21.92,-14.91 35.88,-14.91l367.18 0c13.97,0 26.69,5.73 35.88,14.92 9.19,9.19 14.91,21.9 14.91,35.87l0 270.72c0,13.94 -5.72,26.63 -14.9,35.82 -9.26,9.25 -21.95,14.97 -35.89,14.97l-53.26 0 -49.67 62.02c-5.84,7.26 -16.48,8.42 -23.74,2.58 -1.04,-0.83 -1.95,-1.77 -2.74,-2.77l-49.5 -61.83 -45.54 0c1.3,7.77 1.98,15.75 1.98,23.89 0.07,9.37 -7.51,16.95 -16.86,16.95l-252.65 -0.08c-9.31,0 -16.86,-7.55 -16.86,-16.86 0.01,-39.53 16.04,-75.36 41.94,-101.25 11.52,-11.56 25.02,-21.14 39.94,-28.23 -4.23,-3.11 -8.22,-6.54 -11.93,-10.25 -18.73,-18.73 -30.34,-44.64 -30.34,-73.24 0,-28.6 11.61,-54.51 30.34,-73.24 6.23,-6.23 13.26,-11.68 20.92,-16.17zm183.41 244.62l63.72 0c4.94,0.05 9.83,2.21 13.16,6.35l41.59 51.94 40.8 -50.95c3.05,-4.43 8.16,-7.34 13.95,-7.34l61.34 0c4.67,0 8.92,-1.91 11.98,-4.95 3.04,-3.06 4.95,-7.31 4.95,-11.98l0 -270.72c0,-4.62 -1.92,-8.86 -4.99,-11.93 -3.07,-3.07 -7.32,-5 -11.94,-5l-367.18 0c-4.63,0 -8.87,1.92 -11.94,4.99 -3.07,3.07 -4.99,7.31 -4.99,11.94l0 30.5c5.98,-1.08 12.16,-1.64 18.46,-1.64 28.6,0 54.51,11.61 73.24,30.34 18.73,18.73 30.34,44.64 30.34,73.24 0,28.6 -11.61,54.51 -30.34,73.24 -3.7,3.7 -7.68,7.13 -11.91,10.24 14.92,7.08 28.43,16.66 39.97,28.2 12.44,12.44 22.6,27.18 29.79,43.53zm-208.48 -19.59c-16.06,16.03 -27.15,37.03 -30.79,60.49l216.34 0.01c-3.63,-23.42 -14.74,-44.44 -30.8,-60.5 -19.79,-19.79 -47.14,-32.04 -77.34,-32.04l-0.02 0c-30.21,0.01 -57.56,12.25 -77.39,32.04zm126.69 -184.92c-12.61,-12.61 -30.05,-20.42 -49.3,-20.42 -19.25,0 -36.69,7.81 -49.3,20.42 -12.61,12.61 -20.42,30.05 -20.42,49.3 0,19.25 7.81,36.69 20.42,49.3 12.61,12.61 30.05,20.42 49.3,20.42 19.25,0 36.69,-7.81 49.3,-20.42 12.61,-12.61 20.42,-30.05 20.42,-49.3 0,-19.25 -7.81,-36.69 -20.42,-49.3zm-343.51 -31.7l-42.04 53.1c-2.39,3.02 -4.22,6.21 -5.46,9.58 -1.24,3.38 -1.94,6.99 -2.08,10.84 -3.31,89.42 19.15,175.93 62.21,250.51 43.06,74.58 106.75,137.29 185.83,179.1 3.48,1.84 6.93,3.06 10.4,3.65 3.48,0.6 7.16,0.6 11.06,0.03l67.02 -9.85c5.99,-0.87 11.31,-3.02 15.7,-6.24 4.4,-3.23 8.04,-7.67 10.67,-13.1 2.65,-5.48 3.87,-11.1 3.68,-16.54 -0.19,-5.42 -1.82,-10.91 -4.85,-16.16l-35.22 -60.98c-3.66,-6.42 -8.89,-11.25 -14.97,-14.19 -6.04,-2.92 -13.09,-4.01 -20.41,-2.94l-29.87 4.39c-7.09,1.03 -13.98,1.03 -20.8,-0.05 -6.87,-1.1 -13.43,-3.22 -19.81,-6.4 -37.23,-18.55 -67.15,-47.37 -87.07,-81.87 -19.95,-34.63 -29.96,-74.94 -27.38,-116.34 0.4,-6.6 1.65,-12.84 3.78,-18.81 2.28,-7.08 6.36,-13.78 10.95,-19.59l18.75 -23.68c4.55,-5.76 7.12,-12.4 7.61,-19.14 0.48,-6.74 -1.09,-13.69 -4.77,-20.06l-35.21 -60.99c-2.87,-4.95 -6.48,-8.92 -10.65,-11.75 -5.81,-3.37 -10.21,-5.16 -17.05,-5.65 -6.04,-0.43 -11.72,0.5 -16.72,2.7 -5.07,2.22 -9.6,5.75 -13.3,10.43z"/></g><text x="0" y="861.66" fill="#000000" font-size="5px" font-weight="bold" font-family="'Helvetica Neue', Helvetica, Arial-Unicode, Arial, Sans-serif">Created by syahruni</text><text x="0" y="866.66" fill="#000000" font-size="5px" font-weight="bold" font-family="'Helvetica Neue', Helvetica, Arial-Unicode, Arial, Sans-serif">from the Noun Project</text></svg>