<svg xmlns:inkscape="http://www.inkscape.org/namespaces/inkscape" xmlns:sodipodi="http://sodipodi.sourceforge.net/DTD/sodipodi-0.dtd" xmlns="http://www.w3.org/2000/svg" xmlns:svg="http://www.w3.org/2000/svg" xmlns:rdf="http://www.w3.org/1999/02/22-rdf-syntax-ns#" xmlns:cc="http://creativecommons.org/ns#" xmlns:dc="http://purl.org/dc/elements/1.1/" viewBox="0 0 25.399999 31.75000125" version="1.1" x="0px" y="0px"><g transform="translate(0,-271.59999)"><path style="color:#000000;" d="m 21.991564,272.44411 c -0.07198,-0.0335 -0.143367,-0.0511 -0.222723,-0.0512 H 19.5266 c -0.282935,0 -0.514961,0.23783 -0.519348,0.51986 h -0.529166 c -0.0053,-0.2813 -0.2354,-0.51779 -0.517798,-0.51779 h -1.205095 c -0.285586,2e-5 -0.523491,0.23789 -0.523483,0.52348 v 2.68562 c -8e-6,0.2856 0.237876,0.52506 0.523483,0.52504 h 1.205095 c 0.282414,2e-5 0.512596,-0.23802 0.517798,-0.51935 l 0.531233,-0.002 c 0.0045,0.24321 0.178715,0.45258 0.408244,0.50488 l 0.0016,4.97386 h -1.167886 l -7.163906,-6.21306 c -0.09931,-0.0857 -0.246404,-0.0857 -0.345716,0 l -7.1664877,6.21512 h -2.101162 l 9.4384387,-8.16022 7.362598,6.3593 c 0.110569,0.0954 0.277087,0.0831 0.372586,-0.0274 0.0959,-0.11006 0.08461,-0.27705 -0.02532,-0.3731 l -4.077787,-3.5295 0.635619,-0.63562 0.03411,0.1204 c 0.02665,0.14776 0.117422,0.26505 0.263548,0.26562 0.146934,5.3e-4 0.266195,-0.11868 0.265618,-0.26562 0,0 -0.0021,-0.11535 -0.04651,-0.24804 -0.04423,-0.13268 -0.131599,-0.30369 -0.295074,-0.46716 -0.163473,-0.16348 -0.336016,-0.25239 -0.468704,-0.29662 -0.132689,-0.0442 -0.248047,-0.047 -0.248047,-0.047 -0.146934,-5.3e-4 -0.266195,0.11869 -0.265618,0.26562 2.65e-4,0.14633 0.121611,0.22903 0.265618,0.26407 l 0.121439,0.0341 -0.663525,0.66249 -1.194758,-1.03404 0.643887,-0.64441 0.03411,0.12041 c 0.02964,0.14184 0.117422,0.26504 0.263549,0.26561 0.147135,8e-4 0.266711,-0.11848 0.266134,-0.26561 0,0 -0.0027,-0.11536 -0.04703,-0.24805 -0.04423,-0.13269 -0.131596,-0.30368 -0.295071,-0.46715 -0.163473,-0.16348 -0.333949,-0.25241 -0.466638,-0.29663 -0.132689,-0.0442 -0.250116,-0.047 -0.250113,-0.047 -0.146127,5.3e-4 -0.264123,0.11949 -0.263552,0.26562 2.65e-4,0.14552 0.121037,0.23115 0.263552,0.26406 l 0.121438,0.0341 -0.672309,0.67128 -1.272299,-1.10019 c -0.10401,-0.089 -0.232114,-0.13488 -0.361521,-0.13485 -0.129355,4e-5 -0.259017,0.0456 -0.362011,0.1349 l -3.5393207,3.06441 v -0.81649 h 0.2656178 c 0.1461188,-5.3e-4 0.2641071,-0.1195 0.2635488,-0.26561 v -1.05834 c -5.291e-4,-0.14531 -0.118237,-0.26296 -0.2635488,-0.26355 H 3.3079032 c -0.1461188,-5.3e-4 -0.2650332,0.11743 -0.2656179,0.26355 v 1.05834 c -5.292e-4,0.14692 0.1186894,0.26617 0.2656179,0.26561 H 3.571452 v 3.79512 l -2.79259242,2.41794 c -0.1148556,0.0997 -0.1467538,0.26813 -0.099737,0.39429 0.047051,0.12613 0.1812581,0.23254 0.33383002,0.23254 h 2.5197435 v 9.03511 H 2.954436 c -0.1454097,5.3e-4 -0.2630382,0.11866 -0.2635488,0.26407 v 1.67535 c 5.292e-4,0.14541 0.1181417,0.26355 0.2635488,0.26406 h 4.3222174 c 0.145415,-5.2e-4 0.2630488,-0.11865 0.2635488,-0.26406 5.292e-4,-0.14618 -0.1173691,-0.26512 -0.2635488,-0.26562 H 3.2200539 v -1.14411 h 6.4977935 l -1.1890745,0.68368 c -0.1698625,0.0944 -0.2697507,0.27192 -0.2697507,0.45888 0,0.28969 0.2423054,0.53123 0.5312331,0.53123 h 1.6526137 v 1.14834 H 8.7902426 c -0.2889277,0 -0.5312331,0.24206 -0.5312331,0.53175 0,0.18695 0.1003406,0.36455 0.2697507,0.45889 l 2.0484548,1.1777 c 0.07734,0.0451 0.172219,0.048 0.252179,0.008 l 1.636594,-0.81804 c 0.05762,-0.0287 0.102811,-0.0774 0.127124,-0.13695 l 0.271301,-0.67179 h 7.267774 l 0.275436,0.67179 c 0.02418,0.0595 0.06918,0.10818 0.126606,0.13695 l 1.637109,0.81804 c 0.07926,0.0393 0.172927,0.0364 0.249598,-0.008 l 2.051036,-1.1777 c 0.169844,-0.0944 0.269751,-0.27194 0.269751,-0.45889 0,-0.28969 -0.242305,-0.53175 -0.531233,-0.53175 h -1.652611 l 5.8e-5,-1.14834 h 1.652611 c 0.288928,0 0.531236,-0.24154 0.531233,-0.53123 0,-0.18695 -0.100354,-0.36454 -0.269751,-0.45888 l -2.051036,-1.17771 c -0.07659,-0.0443 -0.170252,-0.0474 -0.249598,-0.008 l -1.637109,0.81855 c -0.05733,0.0286 -0.102317,0.0771 -0.126606,0.13642 l -0.275436,0.67232 h -0.996323 v -1.39062 c -5.29e-4,-0.14541 -0.118137,-0.26355 -0.263549,-0.26406 h -0.57826 v -9.03512 h 1.124998 l 0.0021,6.73448 c -8e-6,0.2856 0.237877,0.5235 0.523484,0.52348 h 1.205092 c 0.285573,-2e-5 0.523478,-0.23791 0.523484,-0.52348 v -12.23595 c 0.235944,-0.0505 0.418068,-0.26314 0.418062,-0.51211 v -0.30851 c -0.0013,-0.3563 0.322766,-0.60537 0.668176,-0.51573 l 1.058334,0.2775 c 0.324199,0.0828 0.656291,-0.17075 0.656291,-0.50798 -1.3e-5,-0.55645 -0.31972,-1.06685 -0.822174,-1.30845 z m -0.224178,0.47852 1.656228,0.79478 c 0.318442,0.15312 0.5144,0.47297 0.517281,0.82424 l -1.048514,-0.27544 c -0.66693,-0.17308 -1.332468,0.33834 -1.330151,1.0294 v 0.3023 h -2.033468 c -0.0035,-0.28275 -0.235897,-0.51934 -0.519348,-0.51934 l -0.531233,0.002 c -0.283464,0 -0.516366,0.2366 -0.519867,0.51935 h -1.197342 l -9.8e-5,-2.6774 h 1.197342 c 0.0035,0.28274 0.237938,0.51936 0.521417,0.51934 h 0.527617 c 0.282945,2e-5 0.514974,-0.2373 0.519348,-0.51934 z m -18.1958882,0.79478 h 3.4395833 v 0.52917 H 3.5714978 Z m 0.5296852,1.05833 h 2.3807314 v 1.27486 l -2.3807314,2.06137 v -1.48466 h 0.2656152 c 0.1461796,-5.3e-4 0.2641282,-0.11944 0.2635515,-0.26562 -5.292e-4,-0.14541 -0.1181365,-0.26305 -0.2635515,-0.26355 H 4.101183 Z m 0.7947819,0.52969 c -0.1461268,-5.3e-4 -0.2650464,0.11742 -0.2656152,0.26355 5.291e-4,0.14612 0.1194911,0.26412 0.2656152,0.26355 h 0.5291666 c 0.1453198,-5.3e-4 0.2629853,-0.11823 0.2635515,-0.26355 -5.292e-4,-0.14532 -0.1182317,-0.26299 -0.2635515,-0.26355 z m 6.0192711,0.11679 3.153296,2.73006 -0.367935,0.31885 h -0.453202 c -0.146177,-5.3e-4 -0.265115,0.11736 -0.265618,0.26354 -5.29e-4,0.14694 0.118679,0.2662 0.265618,0.26562 h 0.344164 l 0.114721,0.46716 c 0.03507,0.14184 0.178549,0.22832 0.320395,0.19327 0.141838,-0.0351 0.228314,-0.17856 0.19327,-0.3204 l -0.125058,-0.51159 0.377753,-0.3266 3.294375,2.85202 v 1.62316 h -1.287777 c -0.09947,-0.30744 -0.399005,-0.52968 -0.735872,-0.52968 h -3.968751 c -0.435575,0 -0.810363,0.36948 -0.769461,0.81648 0.08118,0.88731 0.345125,1.83813 0.736389,2.59003 0.19563,0.37595 0.423341,0.70324 0.689363,0.94722 0.06409,0.0588 0.131239,0.11272 0.20102,0.16124 -0.04065,0.0746 -0.06408,0.15946 -0.06408,0.24908 v 0.5271 c 0,0.16671 0.08012,0.31738 0.203605,0.41496 -0.11998,0.43157 -0.305366,1.38397 -0.02585,2.497 H 9.6165972 v -5.24981 c -2.7e-6,-0.43523 -0.3595476,-0.79478 -0.7947846,-0.79478 H 5.6478472 c -0.4352369,0 -0.7947819,0.35955 -0.7947845,0.79478 v 5.24981 h -0.791165 v -9.29659 l 1.6562281,-1.4335 0.4609544,0.27337 -0.2170403,0.86713 c -0.022913,0.0901 0.00318,0.18568 0.068731,0.25166 l 0.5291667,0.52968 c 0.1034388,0.10399 0.2717297,0.10399 0.3751686,0 0.1039891,-0.10344 0.1039891,-0.27173 0,-0.37516 l -0.4242621,-0.42375 0.045993,-0.18345 h 0.1906852 c 0.1455182,-5.3e-4 0.2632657,-0.11855 0.2635488,-0.26407 5.291e-4,-0.14613 -0.1174221,-0.26505 -0.2635488,-0.26562 h -0.057878 l 0.050125,-0.19895 c 0.029025,-0.1138 -0.020426,-0.23311 -0.1214385,-0.29301 L 6.1403238,279.5553 Z m 9.031491,0.70331 h 1.197343 v 12.21889 h -1.193726 z m -9.800953,1.3379 c -0.4351704,0 -0.7947841,0.35756 -0.7947841,0.79272 v 1.58802 H 8.2921406 c -0.1461188,5.3e-4 -0.264107,0.1195 -0.2635488,0.26562 v 1.32239 c 5.292e-4,0.14532 0.1182344,0.26297 0.2635488,0.26355 h 5.2932174 c 0.145314,-5.2e-4 0.262969,-0.11823 0.263548,-0.26355 v -1.32239 c 5.3e-4,-0.14612 -0.11743,-0.26504 -0.263548,-0.26562 h -1.05885 v -1.58802 c 0,-0.43516 -0.359613,-0.79272 -0.794784,-0.79272 z m 0,0.52917 h 0.527617 v 1.85157 H 9.8801565 v -1.58802 c 0,-0.15115 0.1144588,-0.26355 0.2656175,-0.26355 z m 1.056783,0 h 0.529167 c 0.151159,0 0.265618,0.1124 0.265618,0.26355 v 1.58802 h -0.794785 z m -2.6447985,2.38073 h 0.7932314 v 0.79324 H 8.5577585 Z m 1.322398,0 h 0.7932345 v 0.79324 H 9.8801565 Z m 1.3224005,0 h 0.794785 v 0.79324 h -0.794785 z m 1.323951,0 h 0.793232 v 0.79324 h -0.793232 z m -7.1442681,2.11719 c -0.288589,0 -0.5291666,0.23903 -0.5291666,0.52761 v 0.52917 c 0,0.28858 0.2405909,0.52917 0.5291666,0.52917 h 3.7052012 c 0.2885757,0 0.5291666,-0.24059 0.5291666,-0.52917 v -0.52917 c 0,-0.28858 -0.2405776,-0.52761 -0.5291666,-0.52761 z m 6.3923751,0.48679 h 3.968751 c 0.148918,0 0.252634,0.10492 0.240294,0.23978 -0.07469,0.81633 -0.326403,1.71796 -0.677476,2.39262 -0.175538,0.33733 -0.377106,0.61856 -0.57826,0.80305 -0.201155,0.1845 -0.390679,0.26923 -0.572059,0.26923 h -0.793234 c -0.181379,0 -0.372969,-0.0847 -0.574124,-0.26923 -0.201155,-0.18449 -0.400656,-0.46572 -0.576191,-0.80305 -0.351076,-0.67467 -0.604859,-1.57629 -0.679546,-2.39262 -0.01233,-0.13485 0.09292,-0.23978 0.241845,-0.23978 z m -6.3923751,0.0408 h 3.7052012 v 0.52917 H 5.3822399 Z m 6.9220581,0.48835 c -0.146124,-5.3e-4 -0.265044,0.11742 -0.265615,0.26355 -5.29e-4,0.14693 0.118681,0.26619 0.265615,0.26561 h 2.909901 c 0.146126,-5.3e-4 0.26412,-0.11949 0.263549,-0.26561 -5.29e-4,-0.14532 -0.118232,-0.26299 -0.263549,-0.26355 z m 4.180623,0 h 1.282094 v 3.66024 c 0,0.17507 -0.133445,0.30851 -0.308509,0.30851 -0.175064,0 -0.308507,-0.13344 -0.308507,-0.30851 v -0.22064 c -2.65e-4,-0.14572 -0.118345,-0.26378 -0.264067,-0.26407 -0.146328,-5.3e-4 -0.265335,0.11774 -0.265618,0.26407 v 1.27899 c 0,0.17507 -0.131376,0.30851 -0.306441,0.30851 -0.175064,0 -0.308509,-0.13344 -0.308509,-0.30851 v -0.22066 c 5.29e-4,-0.14632 -0.117737,-0.26533 -0.264065,-0.26561 -0.146934,-5.3e-4 -0.266194,0.11868 -0.265618,0.26561 v 0.22066 c 0,0.45907 0.379119,0.83819 0.838192,0.83819 0.459071,0 0.836126,-0.37912 0.836126,-0.83819 v -0.28008 c 0.09565,0.0384 0.199922,0.0594 0.308507,0.0594 0.108754,0 0.212899,-0.0209 0.308509,-0.0594 v 2.70577 h -2.965193 c 0.283837,-1.13086 0.08706,-2.09518 -0.03307,-2.51664 0.109913,-0.0975 0.179832,-0.23956 0.179832,-0.39532 v -0.5271 c 0,-0.0896 -0.02342,-0.17448 -0.06408,-0.24908 0.06961,-0.0485 0.136927,-0.10245 0.20102,-0.16124 0.26602,-0.24398 0.493734,-0.57127 0.689364,-0.94722 0.356158,-0.68444 0.606698,-1.53183 0.710033,-2.34766 z m -10.8370632,1.62886 h 3.1739654 c 0.1492568,0 0.2656179,0.11635 0.2656179,0.26561 v 5.24981 H 5.3822399 v -5.24981 c 2.7e-6,-0.14926 0.1163585,-0.26561 0.2656179,-0.26561 z m 7.4491582,2.07636 h 1.322398 v 0.5271 h -1.322398 z m -4.8048754,0.0408 c -0.1453171,5.3e-4 -0.2629826,0.11823 -0.2635488,0.26355 v 0.13281 c -0.1469443,-5.3e-4 -0.2661999,0.11868 -0.2656178,0.26561 5.291e-4,0.14618 0.1194408,0.26414 0.2656178,0.26356 v 0.1328 c 2.646e-4,0.14552 0.118028,0.2635 0.2635488,0.26407 0.1463278,5.3e-4 0.2653348,-0.11774 0.2656179,-0.26407 v -0.79478 c -5.292e-4,-0.14613 -0.1194911,-0.26412 -0.2656179,-0.26355 z m 5.9670764,1.01544 c 0.106987,0.36445 0.306954,1.29063 -0.0052,2.3828 h -0.960664 c -0.312071,-1.09215 -0.112144,-2.01836 -0.0052,-2.3828 z m -2.425689,2.91249 h 6.773227 v 1.12499 h -5.742284 l -0.271301,-0.67231 c -0.02442,-0.0594 -0.0696,-0.10788 -0.127124,-0.13642 z m -1.115179,0.0351 1.421619,0.709 0.300757,0.74414 c 0.04037,0.10038 0.137782,0.16607 0.245978,0.16588 h 7.625376 c 0.107061,-2.6e-4 0.203341,-0.0652 0.243912,-0.16433 l 0.304892,-0.74569 1.419551,-0.709 1.930114,1.10897 h -1.652611 c -0.291873,0 -0.533302,0.24161 -0.533302,0.53123 v 1.14464 c 0,0.28964 0.241443,0.53123 0.533302,0.53123 h 1.652611 l -1.930114,1.1095 -1.419551,-0.70901 -0.304892,-0.7462 c -0.04073,-0.0989 -0.136975,-0.16351 -0.243912,-0.16382 h -7.625376 c -0.108196,-1.9e-4 -0.20561,0.0655 -0.245978,0.16588 l -0.300757,0.74414 -1.421619,0.70901 -1.9280482,-1.1095 h 1.6526142 c 0.291859,0 0.531233,-0.24159 0.531233,-0.53123 v -1.14464 c 0,-0.28962 -0.239364,-0.53123 -0.531233,-0.53123 H 8.7903008 Z" display="inline" fill="#000000" stroke="none"/></g><text x="0" y="40.400001" fill="#000000" font-size="5px" font-weight="bold" font-family="'Helvetica Neue', Helvetica, Arial-Unicode, Arial, Sans-serif">Created by Taufik Ramadhan</text><text x="0" y="45.400001" fill="#000000" font-size="5px" font-weight="bold" font-family="'Helvetica Neue', Helvetica, Arial-Unicode, Arial, Sans-serif"></text></svg>